<svg xmlns="http://www.w3.org/2000/svg" viewBox="0 0 512 512">
<defs>
  <radialGradient id="g" cx="38%" cy="30%" r="70%">
    <stop offset="0%" stop-color="#f0d980"/>
    <stop offset="50%" stop-color="#c9a84c"/>
    <stop offset="100%" stop-color="#8a6420"/>
  </radialGradient>
  <radialGradient id="bg" cx="50%" cy="50%" r="50%">
    <stop offset="0%" stop-color="#ffffff"/>
    <stop offset="100%" stop-color="#fdf8f0"/>
  </radialGradient>
  <radialGradient id="sh" cx="35%" cy="28%" r="42%">
    <stop offset="0%" stop-color="white" stop-opacity="0.22"/>
    <stop offset="100%" stop-color="white" stop-opacity="0"/>
  </radialGradient>
  <clipPath id="c"><ellipse cx="256" cy="258" rx="80" ry="142"/></clipPath>
</defs>
<ellipse cx="256" cy="256" rx="256" ry="256" fill="url(#bg)"/>
<ellipse cx="256" cy="258" rx="84" ry="147" fill="none" stroke="#c9a84c" stroke-width="2">
  <animate attributeName="rx" values="84;170" dur="2.8s" repeatCount="indefinite" begin="0s"/>
  <animate attributeName="ry" values="147;262" dur="2.8s" repeatCount="indefinite" begin="0s"/>
  <animate attributeName="opacity" values="0.7;0" dur="2.8s" repeatCount="indefinite" begin="0s"/>
</ellipse>
<ellipse cx="256" cy="258" rx="84" ry="147" fill="none" stroke="#c9a84c" stroke-width="1.5">
  <animate attributeName="rx" values="84;170" dur="2.8s" repeatCount="indefinite" begin="0.93s"/>
  <animate attributeName="ry" values="147;262" dur="2.8s" repeatCount="indefinite" begin="0.93s"/>
  <animate attributeName="opacity" values="0.55;0" dur="2.8s" repeatCount="indefinite" begin="0.93s"/>
</ellipse>
<ellipse cx="256" cy="258" rx="84" ry="147" fill="none" stroke="#c9a84c" stroke-width="1">
  <animate attributeName="rx" values="84;170" dur="2.8s" repeatCount="indefinite" begin="1.86s"/>
  <animate attributeName="ry" values="147;262" dur="2.8s" repeatCount="indefinite" begin="1.86s"/>
  <animate attributeName="opacity" values="0.45;0" dur="2.8s" repeatCount="indefinite" begin="1.86s"/>
</ellipse>
<ellipse cx="256" cy="258" rx="80" ry="142" fill="url(#g)"/>
<g clip-path="url(#c)" fill="white">
<path d="M 237.6,119.9 L 232.6,123.1 L 228.0,125.9 L 218.9,132.3 L 216.4,134.7 L 211.7,140.2 L 205.4,148.8 L 203.1,152.2 L 201.1,155.3 L 195.5,165.4 L 190.8,176.2 L 186.7,188.9 L 182.6,207.4 L 182.0,217.1 L 185.2,234.0 L 187.5,236.2 L 189.9,222.1 L 189.8,216.4 L 187.6,208.1 L 191.3,200.8 L 192.6,205.1 L 196.6,219.1 L 199.8,215.9 L 201.7,201.4 L 205.1,198.3 L 206.3,193.9 L 209.7,188.3 L 214.0,185.5 L 218.2,182.7 L 230.4,179.8 L 230.3,173.4 L 231.2,167.4 L 229.7,162.9 L 230.5,157.2 L 230.3,153.3 L 231.2,148.0 L 234.7,145.8 L 226.0,147.3 L 221.4,148.4 L 217.5,157.1 L 215.7,162.9 L 216.3,156.2 L 217.0,149.3 L 218.4,145.5 L 214.5,145.7 L 210.5,148.2 L 206.9,151.9 L 203.5,153.6 L 204.0,151.1 L 209.5,142.7 L 213.0,138.6 L 216.4,134.7 L 237.6,119.9 Z"/>
<path d="M 242.8,131.4 L 245.7,131.1 L 248.4,130.6 L 250.3,133.4 L 250.4,138.6 L 252.3,144.5 L 245.4,151.7 L 239.5,150.7 L 239.1,147.1 L 239.0,143.8 L 236.7,141.4 L 239.1,135.9 L 242.8,131.4 Z"/>
<path d="M 193.6,261.3 L 208.6,263.1 L 207.7,260.3 L 210.8,263.8 L 210.6,268.7 L 218.6,278.4 L 219.8,281.1 L 222.2,286.5 L 222.2,291.3 L 232.6,300.3 L 242.2,306.0 L 242.2,312.9 L 239.6,317.2 L 238.5,323.7 L 237.3,327.9 L 236.5,338.3 L 233.2,343.8 L 227.3,352.0 L 225.2,358.5 L 221.3,362.2 L 218.1,365.6 L 217.8,370.7 L 220.2,377.2 L 224.7,385.8 L 226.1,387.0 L 219.4,381.2 L 215.5,375.1 L 212.5,368.4 L 208.5,360.2 L 206.2,348.7 L 202.8,329.3 L 194.8,304.6 L 189.8,288.1 L 190.5,279.1 L 193.2,268.6 L 193.6,261.3 Z"/>
<path d="M 276.2,135.8 L 278.4,136.3 L 279.9,139.1 L 281.5,143.9 L 281.7,147.6 L 283.3,152.7 L 281.5,157.2 L 279.7,159.8 L 282.2,167.0 L 279.9,169.7 L 279.6,171.8 L 274.0,173.0 L 272.1,190.3 L 274.9,205.8 L 278.1,205.3 L 281.6,207.0 L 287.4,203.4 L 284.3,192.5 L 287.0,187.3 L 287.3,184.9 L 287.9,180.2 L 291.8,176.6 L 293.9,178.0 L 293.8,182.7 L 298.0,185.5 L 298.7,187.6 L 300.8,189.0 L 302.9,185.5 L 303.5,182.7 L 302.0,178.6 L 301.5,174.0 L 302.4,168.4 L 301.0,164.4 L 297.8,161.9 L 292.5,160.6 L 288.9,156.1 L 288.8,149.8 L 286.8,146.8 L 281.9,143.7 L 279.9,139.1 L 276.2,135.8 Z"/>
<path d="M 276.8,203.2 L 277.6,210.1 L 276.3,219.9 L 268.7,235.3 L 266.5,245.3 L 266.8,257.7 L 266.9,265.1 L 269.8,274.8 L 283.3,280.5 L 292.2,281.1 L 299.5,279.2 L 304.0,275.3 L 305.9,267.2 L 305.2,257.4 L 306.3,257.0 L 308.0,266.4 L 310.4,272.8 L 310.6,284.9 L 304.0,299.2 L 305.9,305.4 L 307.5,311.4 L 322.5,309.5 L 322.5,317.3 L 321.1,322.2 L 318.1,333.1 L 312.8,344.8 L 307.5,353.9 L 302.3,358.0 L 301.2,357.0 L 303.3,346.5 L 302.0,339.9 L 305.3,331.0 L 301.2,324.4 L 307.7,309.1 L 312.4,293.5 L 323.1,278.0 L 329.0,268.2 L 329.2,257.9 L 328.5,248.3 L 329.1,242.4 L 328.8,245.3 L 329.5,241.8 L 327.5,238.8 L 326.0,237.5 L 325.7,245.8 L 324.4,246.9 L 323.6,239.7 L 323.0,226.8 L 322.1,222.1 L 319.9,218.5 L 316.5,210.3 L 312.9,202.3 L 309.0,199.6 L 304.8,196.9 L 292.6,199.5 L 276.8,203.2 Z"/>
</g>
<ellipse cx="256" cy="258" rx="80" ry="142" fill="url(#sh)"/>
<ellipse cx="256" cy="258" rx="80" ry="142" fill="none" stroke="#c9a84c" stroke-width="2.5"/>
</svg>