<svg xmlns="http://www.w3.org/2000/svg" viewBox="0 0 512 512">
<defs>
  <radialGradient id="g" cx="38%" cy="30%" r="70%">
    <stop offset="0%" stop-color="#f0d980"/>
    <stop offset="45%" stop-color="#c9a84c"/>
    <stop offset="100%" stop-color="#8a6420"/>
  </radialGradient>
  <radialGradient id="bg" cx="50%" cy="50%" r="50%">
    <stop offset="0%" stop-color="#ffffff"/>
    <stop offset="100%" stop-color="#fdf8f0"/>
  </radialGradient>
  <radialGradient id="sh" cx="35%" cy="28%" r="42%">
    <stop offset="0%" stop-color="white" stop-opacity="0.22"/>
    <stop offset="100%" stop-color="white" stop-opacity="0"/>
  </radialGradient>
  <clipPath id="c"><circle cx="256" cy="248" r="192"/></clipPath>
</defs>
<circle cx="256" cy="256" r="256" fill="url(#bg)"/>
<!-- Pulsing rings -->
<circle cx="256" cy="248" r="196" fill="none" stroke="#c9a84c" stroke-width="2.5">
  <animate attributeName="r" values="196;302" dur="2.8s" repeatCount="indefinite" begin="0s"/>
  <animate attributeName="opacity" values="0.7;0" dur="2.8s" repeatCount="indefinite" begin="0s"/>
</circle>
<circle cx="256" cy="248" r="196" fill="none" stroke="#c9a84c" stroke-width="1.8">
  <animate attributeName="r" values="196;302" dur="2.8s" repeatCount="indefinite" begin="0.93s"/>
  <animate attributeName="opacity" values="0.55;0" dur="2.8s" repeatCount="indefinite" begin="0.93s"/>
</circle>
<circle cx="256" cy="248" r="196" fill="none" stroke="#c9a84c" stroke-width="1.2">
  <animate attributeName="r" values="196;302" dur="2.8s" repeatCount="indefinite" begin="1.86s"/>
  <animate attributeName="opacity" values="0.45;0" dur="2.8s" repeatCount="indefinite" begin="1.86s"/>
</circle>
<!-- Globe -->
<circle cx="256" cy="248" r="192" fill="url(#g)"/>
<g clip-path="url(#c)" fill="white">
<path d="M 202.4,63.6 L 191.4,67.2 L 90.6,150.4 L 79.3,174.1 L 76.3,186.1 L 80.5,205.8 L 84.9,207.9 L 90.9,188.7 L 91.2,181.5 L 87.9,171.9 L 96.2,161.4 L 98.2,166.3 L 105.3,183.2 L 112.5,178.3 L 118.0,159.4 L 125.6,154.8 L 128.9,149.1 L 137.0,141.5 L 146.7,137.4 L 156.6,133.3 L 184.7,128.8 L 185.2,120.7 L 188.1,113.2 L 185.2,107.8 L 187.9,100.8 L 188.1,96.0 L 191.2,89.7 L 199.6,86.8 L 179.6,89.3 L 169.0,91.3 L 158.8,102.1 L 153.6,109.3 L 156.2,101.2 L 159.2,93.1 L 163.3,88.6 L 155.0,89.8 L 145.9,93.8 L 137.8,99.0 L 131.0,102.6 Z"/>
<path d="M 221.5,69.9 L 228.2,69.5 L 234.8,68.9 L 238.6,72.0 L 237.7,78.0 L 241.0,84.9 L 223.3,93.6 L 209.8,92.4 L 209.5,88.2 L 209.8,84.2 L 205.1,81.5 L 211.9,75.1 L 221.5,69.9 Z"/>
<path d="M 96.5,239.7 L 129.5,239.6 L 127.5,235.9 L 134.5,240.3 L 133.8,247.0 L 151.8,259.4 L 154.5,263.0 L 160.1,270.3 L 160.0,276.9 L 184.2,288.8 L 206.5,296.6 L 206.8,306.2 L 200.7,312.2 L 198.2,321.4 L 195.6,327.4 L 194.3,342.1 L 186.9,350.1 L 173.8,362.5 L 169.7,372.2 L 161.3,378.3 L 154.8,383.9 L 155.1,392.0 L 161.8,402.1 L 174.2,415.7 L 177.5,417.5 L 161.6,409.4 L 151.4,400.0 L 143.6,389.8 L 133.5,377.8 L 126.8,360.7 L 117.8,332.8 L 99.2,299.2 L 88.5,277.3 L 89.7,264.7 L 95.6,249.6 L 96.5,239.7 Z"/>
<path d="M 301.0,76.8 L 306.3,77.6 L 309.5,81.0 L 312.4,86.8 L 312.0,91.1 L 315.1,97.4 L 309.9,102.6 L 305.1,105.5 L 310.2,114.7 L 304.1,117.8 L 303.2,120.4 L 289.3,121.2 L 282.8,143.0 L 288.3,163.2 L 296.2,162.9 L 304.6,165.5 L 319.2,161.5 L 312.6,147.1 L 319.7,140.8 L 320.8,137.8 L 322.7,132.0 L 333.0,128.1 L 338.1,130.2 L 337.2,136.1 L 347.7,140.5 L 349.1,143.2 L 354.4,145.4 L 360.2,141.4 L 362.0,138.1 L 358.6,132.7 L 358.2,126.9 L 361.2,120.3 L 358.3,115.1 L 350.4,111.4 L 337.2,108.6 L 328.6,102.5 L 329.5,95.0 L 325.1,91.1 L 313.4,86.6 L 309.5,81.0 L 301.0,76.8 Z"/>
<path d="M 293.1,160.0 L 294.5,169.1 L 290.6,181.7 L 271.3,201.4 L 265.4,214.6 L 265.7,231.2 L 265.8,241.3 L 272.6,254.6 L 305.5,263.6 L 327.7,265.6 L 345.9,264.2 L 357.4,259.7 L 362.3,249.1 L 361.0,235.7 L 363.7,235.4 L 367.8,248.4 L 373.8,257.7 L 374.2,274.3 L 357.4,292.6 L 362.3,301.7 L 366.8,310.6 L 406.7,312.8 L 407.4,324.2 L 403.8,330.6 L 396.8,345.7 L 383.4,361.1 L 370.5,372.9 L 357.1,377.4 L 354.0,375.5 L 358.0,360.3 L 354.1,350.2 L 362.0,338.0 L 351.1,327.6 L 367.1,307.4 L 379.1,286.7 L 407.3,268.5 L 423.8,257.6 L 424.6,243.8 L 423.0,230.6 L 424.8,223.0 L 423.9,226.8 L 426.2,222.5 L 420.5,217.4 L 416.6,215.2 L 415.3,226.0 L 411.7,226.9 L 409.8,217.1 L 409.0,199.9 L 407.0,193.5 L 401.4,188.1 L 393.1,176.5 L 384.3,165.2 L 374.3,160.8 L 363.9,156.3 L 332.7,157.3 L 293.1,160.0 Z"/>
</g>
<circle cx="256" cy="248" r="192" fill="url(#sh)"/>
<circle cx="256" cy="248" r="192" fill="none" stroke="#c9a84c" stroke-width="3"/>
</svg>