<svg xmlns="http://www.w3.org/2000/svg" width="1024" height="1024" viewBox="0 0 1024 1024">
  <defs>
    <radialGradient id="bg" cx="50%" cy="45%" r="70%">
      <stop offset="0%" stop-color="#252016"/>
      <stop offset="58%" stop-color="#070809"/>
      <stop offset="100%" stop-color="#000"/>
    </radialGradient>
    <linearGradient id="gold" x1="0" y1="0" x2="1" y2="1">
      <stop offset="0%" stop-color="#fff0b8"/>
      <stop offset="45%" stop-color="#ba842f"/>
      <stop offset="100%" stop-color="#f8d77d"/>
    </linearGradient>
    <filter id="shadow" x="-20%" y="-20%" width="140%" height="140%">
      <feDropShadow dx="0" dy="16" stdDeviation="18" flood-color="#000" flood-opacity="0.65"/>
    </filter>
  </defs>
  <circle cx="512" cy="512" r="512" fill="url(#bg)"/>
  <circle cx="512" cy="512" r="454" fill="none" stroke="#d4aa51" stroke-width="16" stroke-opacity="0.9"/>
  <circle cx="512" cy="512" r="392" fill="none" stroke="#ffffff" stroke-width="2" stroke-opacity="0.10"/>
  <g transform="translate(512 462)" filter="url(#shadow)">
    <path d="M -284 -200 C -206 -92 -126 -10 -42 62 L -18 222 L 18 222 L 42 62 C 126 -10 206 -92 284 -200 Z" fill="none" stroke="url(#gold)" stroke-width="34" stroke-linejoin="round"/>
    <path d="M -190 -92 C -118 -24 -56 22 0 62 C 56 22 118 -24 190 -92" fill="none" stroke="#ffe7a2" stroke-opacity="0.68" stroke-width="10" stroke-linecap="round"/>
    <path d="M -18 222 L -70 346 L 0 310 L 70 346 L 18 222 Z" fill="url(#gold)"/>
    <circle cx="0" cy="62" r="28" fill="#ffe08b"/>
  </g>
  <text x="512" y="838" text-anchor="middle" font-family="Nimbus Roman, Georgia, serif" font-size="132" font-weight="700" fill="#f6e1a5" filter="url(#shadow)">NS</text>
</svg>